<svg id="Calque_1" data-name="Calque 1" xmlns="http://www.w3.org/2000/svg" xmlns:xlink="http://www.w3.org/1999/xlink" viewBox="0 0 1925 1167"><defs><style>.cls-1{fill:none;}.cls-2{clip-path:url(#clip-path);}.cls-3{fill:#fff;}.cls-4{opacity:0.5;}.cls-5{fill:#f5f5f5;}</style><clipPath id="clip-path"><rect class="cls-1" x="1" width="1925" height="1167"/></clipPath></defs><title>Background</title><g class="cls-2"><rect class="cls-3" x="1" width="1925" height="1167"/><g class="cls-4"><rect class="cls-5" x="-562.62" y="575.16" width="1792.53" height="23.73" transform="translate(-317.37 407.86) rotate(-45)"/><rect class="cls-5" x="843.2" y="-96.43" width="23.73" height="1497.17" transform="translate(-211.52 514.91) rotate(-30)"/><rect class="cls-5" x="394.4" y="-118.04" width="23.73" height="1497.17" transform="translate(-149.35 126.64) rotate(-15)"/><rect class="cls-5" x="1679.44" y="-184.38" width="23.73" height="1497.17" transform="translate(-55.51 921.24) rotate(-30)"/><rect class="cls-5" x="881.07" y="683.38" width="1497.17" height="23.73" transform="translate(536.31 2089.43) rotate(-75)"/><rect class="cls-5" x="-414.12" y="744.87" width="2527.82" height="23.73" transform="translate(-166.9 245.73) rotate(-15)"/><rect class="cls-5" x="759.76" y="-321.5" width="23.73" height="2527.82" transform="translate(-338.38 1443.82) rotate(-75)"/><rect class="cls-5" x="-491" y="290" width="2528" height="24"/><circle class="cls-5" cx="639.42" cy="289.71" r="73.99"/><circle class="cls-5" cx="1672.5" cy="542.39" r="73.99"/><circle class="cls-5" cx="464.91" cy="857.9" r="73.99"/></g></g></svg>